<?xml version="1.0" standalone="no"?>
<!DOCTYPE svg PUBLIC "-//W3C//DTD SVG 20010904//EN"
 "http://www.w3.org/TR/2001/REC-SVG-20010904/DTD/svg10.dtd">
<svg version="1.0" xmlns="http://www.w3.org/2000/svg"
 width="768.000000pt" height="398.000000pt" viewBox="0 0 768.000000 398.000000"
 preserveAspectRatio="xMidYMid meet">
<metadata>
Created by potrace 1.16, written by Peter Selinger 2001-2019
</metadata>
<g transform="translate(0.000000,398.000000) scale(0.100000,-0.100000)"
fill="#000000" stroke="none">
<path d="M3793 3506 c-58 -19 -105 -50 -147 -96 -57 -63 -70 -102 -70 -215 -1
-92 1 -104 26 -146 42 -72 116 -132 184 -152 33 -9 68 -18 79 -19 20 -3 20
-11 20 -388 0 -413 -3 -440 -56 -557 -66 -143 -187 -211 -326 -183 -127 27
-203 107 -203 215 0 84 62 175 119 175 17 0 31 -4 31 -8 0 -5 11 -15 25 -22
30 -16 55 0 55 36 0 33 -36 48 -93 40 -62 -9 -106 -42 -144 -106 -29 -47 -33
-63 -33 -122 0 -37 5 -80 12 -95 64 -146 219 -225 379 -194 129 26 209 91 274
225 70 142 68 130 75 766 6 578 8 606 45 682 32 65 3 59 -81 -14 -62 -55 -74
-93 -74 -253 0 -77 -4 -146 -9 -154 -14 -21 -110 12 -169 58 -69 55 -92 108
-92 213 1 104 32 176 98 225 95 71 206 71 351 0 152 -76 229 -72 285 14 42 62
32 87 -20 52 -36 -23 -122 -21 -224 6 -106 28 -259 36 -317 17z"/>
<path d="M4644 1213 c-20 -43 -41 -91 -49 -108 -7 -16 -22 -50 -33 -75 -11
-25 -42 -97 -70 -160 -27 -63 -61 -140 -75 -170 -13 -30 -39 -89 -57 -130 -44
-103 -67 -138 -101 -155 -16 -9 -29 -20 -29 -25 0 -13 227 -13 235 0 3 6 -1
10 -10 10 -34 0 -75 30 -75 55 0 22 37 115 73 185 l13 25 174 0 175 0 37 -75
c20 -41 40 -90 44 -109 6 -30 3 -38 -20 -58 -15 -13 -36 -23 -47 -23 -11 0
-17 -4 -14 -10 8 -14 345 -14 345 0 0 6 -9 10 -20 10 -39 0 -78 53 -131 175
-28 66 -59 138 -69 160 -10 22 -48 110 -85 195 -37 85 -73 169 -80 185 -61
138 -74 163 -84 169 -8 5 -24 -20 -47 -71z m51 -264 c25 -57 54 -122 65 -144
38 -83 43 -80 -114 -83 -77 -1 -143 1 -147 5 -6 7 27 89 91 230 11 24 20 45
20 48 0 9 32 56 36 52 2 -2 24 -50 49 -108z"/>
<path d="M2685 1257 c-61 -17 -137 -98 -154 -164 -24 -99 26 -202 128 -260
240 -139 311 -205 311 -288 0 -81 -67 -135 -166 -135 -125 1 -200 70 -250 228
-2 7 -8 10 -14 7 -14 -9 -13 -272 1 -280 6 -4 17 2 25 14 19 26 50 27 134 1
163 -50 312 -1 376 122 21 40 23 147 4 185 -28 57 -109 126 -241 209 -154 96
-187 126 -195 176 -12 71 40 133 118 144 104 14 208 -58 244 -170 11 -32 24
-59 29 -59 12 -2 19 263 7 275 -5 5 -20 -2 -35 -16 -28 -26 -36 -26 -142 8
-56 18 -121 19 -180 3z"/>
<path d="M780 1240 c0 -5 9 -10 20 -10 29 0 78 -27 90 -49 13 -26 14 -710 0
-745 -16 -43 -53 -35 -90 19 -36 52 -62 69 -92 59 -73 -23 -62 -101 19 -143
12 -6 47 -11 77 -11 110 0 188 62 221 175 12 42 15 111 15 340 0 177 4 294 10
306 12 22 61 49 90 49 11 0 20 5 20 10 0 6 -70 10 -190 10 -120 0 -190 -4
-190 -10z"/>
<path d="M1210 1243 c0 -5 15 -15 33 -24 48 -24 46 -19 197 -424 10 -27 35
-95 55 -150 40 -112 73 -200 85 -230 5 -11 11 -28 14 -37 12 -38 34 -1 83 135
28 78 66 180 83 227 18 47 36 100 41 118 6 17 15 32 22 32 7 0 34 -57 60 -128
27 -70 52 -136 57 -147 5 -11 28 -72 53 -135 25 -66 49 -115 57 -115 12 0 31
46 95 230 13 39 45 129 71 200 25 72 59 168 76 215 44 128 77 189 109 206 52
27 33 34 -91 34 -73 0 -120 -4 -120 -10 0 -5 9 -10 19 -10 11 0 33 -11 48 -24
l28 -24 -16 -59 c-21 -76 -162 -474 -175 -495 -4 -6 -38 70 -76 168 -38 98
-73 188 -78 199 -26 61 -50 139 -50 165 0 29 38 70 66 70 8 0 14 5 14 10 0 6
-63 10 -170 10 -93 0 -170 -3 -170 -7 1 -5 20 -17 43 -28 39 -19 45 -27 81
-116 l39 -96 -21 -64 c-11 -35 -37 -109 -57 -164 -21 -55 -40 -110 -42 -122
-3 -13 -12 -23 -19 -23 -8 0 -14 1 -14 3 0 3 -67 192 -100 282 -95 262 -97
280 -43 305 18 8 33 18 33 23 0 4 -72 7 -160 7 -88 0 -160 -3 -160 -7z"/>
<path d="M3206 1242 c5 -4 27 -14 49 -21 22 -8 45 -21 52 -30 9 -12 12 -109
13 -378 0 -349 -1 -364 -20 -383 -11 -11 -38 -23 -60 -26 -22 -4 -37 -10 -34
-15 7 -13 371 -11 379 1 4 6 -6 10 -22 10 -15 0 -42 9 -60 19 -28 18 -32 26
-38 83 -3 35 -5 117 -3 183 l3 120 213 3 212 2 0 -177 c-1 -124 -4 -183 -13
-194 -17 -23 -52 -39 -81 -39 -14 0 -26 -4 -26 -10 0 -6 70 -10 190 -10 178 0
239 10 152 24 -78 12 -77 7 -80 375 -4 388 -2 405 41 432 18 10 42 19 55 19
12 0 22 5 22 10 0 6 -70 10 -190 10 -120 0 -190 -4 -190 -10 0 -5 11 -10 25
-10 35 0 71 -19 84 -44 8 -14 11 -73 9 -171 l-3 -150 -199 -3 c-146 -2 -202 1
-213 10 -13 10 -14 37 -11 153 3 77 8 148 13 158 9 22 56 47 90 47 14 0 25 5
25 10 0 6 -72 10 -197 10 -108 0 -193 -4 -187 -8z"/>
<path d="M5230 1240 c0 -5 9 -10 21 -10 27 0 60 -18 81 -44 16 -19 18 -55 18
-372 0 -340 -1 -352 -21 -378 -13 -17 -34 -28 -60 -32 -21 -4 -36 -10 -33 -15
7 -13 361 -11 369 1 4 6 -7 10 -25 10 -22 0 -41 9 -61 29 l-29 29 0 161 c0
153 1 160 21 166 11 4 30 4 43 1 13 -3 87 -86 184 -206 l163 -200 109 0 c60 0
111 4 114 8 2 4 -17 15 -43 25 -31 11 -65 35 -99 69 -59 61 -252 299 -252 311
0 4 12 12 27 18 123 46 180 113 182 212 2 84 -65 173 -156 207 -48 18 -79 20
-303 20 -160 0 -250 -4 -250 -10z m411 -41 c127 -43 180 -190 102 -287 -39
-48 -118 -81 -195 -82 l-58 0 0 175 0 176 33 14 c39 17 74 18 118 4z"/>
<path d="M6220 1240 c0 -5 10 -10 23 -10 32 0 86 -36 92 -62 3 -13 5 -179 3
-369 -3 -326 -4 -348 -22 -368 -11 -12 -37 -24 -58 -27 -102 -17 -7 -24 311
-24 l349 0 31 93 c17 50 31 98 31 105 0 23 -16 12 -37 -25 -12 -21 -34 -50
-50 -65 -51 -49 -89 -58 -247 -58 -133 0 -146 2 -156 19 -6 12 -10 92 -10 190
l0 171 130 0 c73 0 140 -5 153 -11 27 -12 45 -40 49 -78 2 -14 9 -26 16 -29 9
-3 12 30 12 143 0 111 -3 146 -12 143 -7 -3 -16 -19 -19 -37 -13 -64 -35 -74
-163 -79 -63 -2 -126 -2 -141 2 l-25 7 2 162 3 162 162 0 c185 0 202 -6 232
-83 10 -24 21 -42 27 -40 9 3 7 155 -3 171 -7 11 -683 9 -683 -3z"/>
</g>
</svg>
